<svg width="18" height="17" viewBox="0 0 18 17" fill="none" xmlns="http://www.w3.org/2000/svg">
<path d="M13.0312 0.8125H13.0322C13.612 0.812706 14.1861 0.928071 14.7207 1.15234C15.2555 1.37666 15.74 1.70554 16.1465 2.11914C16.9754 2.96296 17.4395 4.09841 17.4395 5.28125C17.4395 6.46409 16.9754 7.59954 16.1465 8.44336L9 15.6797L1.85449 8.44336C1.02574 7.59956 0.561523 6.46398 0.561523 5.28125C0.561524 4.09852 1.02574 2.96294 1.85449 2.11914C2.26107 1.70576 2.7465 1.37743 3.28125 1.15332C3.81591 0.929302 4.39003 0.813477 4.96973 0.813477C5.54945 0.813511 6.12353 0.929248 6.6582 1.15332C7.19287 1.37741 7.67746 1.70584 8.08398 2.11914L8.08496 2.12012L8.77832 2.82031L9.00098 3.04395L9.22266 2.82031L9.91602 2.12012L9.91797 2.11914C10.324 1.70511 10.808 1.37568 11.3428 1.15137C11.8774 0.927112 12.4515 0.812068 13.0312 0.8125ZM13.0322 1.4375C12.5331 1.43681 12.0387 1.53682 11.5791 1.73145C11.1203 1.9258 10.7049 2.21022 10.3584 2.56836L9.00098 3.95215L7.63672 2.55664L7.63574 2.55566C7.28793 2.20158 6.87273 1.92054 6.41504 1.72852C5.95732 1.53652 5.46608 1.43753 4.96973 1.4375C4.47319 1.4375 3.98131 1.53642 3.52344 1.72852C3.06571 1.92058 2.65055 2.20151 2.30273 2.55566C1.58873 3.2806 1.18848 4.25787 1.18848 5.27539C1.18858 6.29272 1.58888 7.26931 2.30273 7.99414H2.30371L8.77832 14.5508L9.00098 14.7764L9.22266 14.5508L15.6982 7.99414C16.4122 7.26928 16.8124 6.29283 16.8125 5.27539C16.8125 4.2578 16.4123 3.28062 15.6982 2.55566C15.3507 2.20141 14.9362 1.91953 14.4785 1.72754C14.0207 1.53551 13.5287 1.43715 13.0322 1.4375Z" fill="#BDBDBD" stroke="#252B42" stroke-width="0.625"/>
</svg>
