<svg width="33" height="32" viewBox="0 0 33 32" fill="none" xmlns="http://www.w3.org/2000/svg">
<g clip-path="url(#clip0_2_140)">
<path d="M16.4909 4.218C9.51587 -1.88266 0.64723 3.47755 0.501803 10.7442C0.464744 12.5961 0.999328 14.4 2.06343 16.0631H8.96066L10.1874 14.0184C10.5437 13.4247 11.4057 13.4056 11.7821 13.9974L14.3705 18.0648L18.1435 10.0997C18.4726 9.40473 19.4532 9.38267 19.8161 10.0566L23.0503 16.0631H30.9184C36.7468 6.95379 25.2279 -3.42361 16.4909 4.218Z" fill="#E74040"/>
<path d="M21.6651 17.4453L19.0443 12.5781L15.3382 20.4019C15.0229 21.0675 14.0956 21.1253 13.7002 20.5039L11.0148 16.284L10.2952 17.4832C10.1258 17.7655 9.82072 17.9383 9.49143 17.9383H3.54639C3.73275 18.1333 2.73951 17.1421 15.8297 30.1645C16.1953 30.5283 16.7863 30.5283 17.152 30.1645C30.0407 17.3424 29.2493 18.133 29.4353 17.9383H22.4904C22.1455 17.9383 21.8286 17.749 21.6651 17.4453Z" fill="#E74040"/>
</g>
<defs>
<clipPath id="clip0_2_140">
<rect width="32" height="32" fill="white" transform="translate(0.5)"/>
</clipPath>
</defs>
</svg>
