<svg width="32" height="32" viewBox="0 0 32 32" fill="none" xmlns="http://www.w3.org/2000/svg">
<g clip-path="url(#clip0_2_150)">
<path d="M6.34854 31.9993H25.6518C26.8004 31.9993 27.7567 31.1208 27.7567 30.0411V6.62782C27.7567 5.54793 26.8004 4.66016 25.6518 4.66016H22.4697V6.44793C22.4744 6.75825 22.2295 7.01505 21.9195 7.02537H10.0431C9.7268 7.01777 9.47137 6.76423 9.46104 6.44793V4.66016H6.34854C5.1999 4.66016 4.24365 5.54793 4.24365 6.62782V30.0411C4.24365 31.1208 5.1999 31.9993 6.34854 31.9993ZM10.6437 14.0515C10.6437 13.7441 10.8928 13.4949 11.2002 13.4949H14.0523V10.6428C14.0523 10.3354 14.3015 10.0862 14.6089 10.0862H17.3915C17.6988 10.0862 17.948 10.3354 17.948 10.6428V13.4949H20.8002C21.1075 13.4949 21.3567 13.7441 21.3567 14.0515V16.8341C21.3567 17.1414 21.1075 17.3906 20.8002 17.3906H17.948V20.2428C17.948 20.5501 17.6988 20.7993 17.3915 20.7993H14.6089C14.3015 20.7993 14.0523 20.5501 14.0523 20.2428V17.3906H11.2002C10.8928 17.3906 10.6437 17.1414 10.6437 16.8341V14.0515ZM10.8703 23.6515H21.1301C21.4377 23.6515 21.6866 23.9006 21.6866 24.208C21.6866 24.5153 21.4377 24.7645 21.1301 24.7645H10.8703C10.5627 24.7645 10.3138 24.5153 10.3138 24.208C10.3138 23.9006 10.5627 23.6515 10.8703 23.6515ZM8.78333 26.4341H23.217C23.5246 26.4341 23.7735 26.6833 23.7735 26.9906C23.7735 27.2979 23.5246 27.5471 23.217 27.5471H8.78333C8.47572 27.5471 8.2268 27.2979 8.2268 26.9906C8.2268 26.6833 8.47572 26.4341 8.78333 26.4341Z" fill="#E74040"/>
<path d="M21.3563 2.15652H18.752C18.49 2.15625 18.2634 1.97337 18.2082 1.71712C17.993 0.722556 17.0485 1.23676e-06 15.962 1.23676e-06H15.9553C14.8979 -0.00108572 13.9743 0.714403 13.7112 1.73832C13.6479 1.98424 13.4262 2.15625 13.1721 2.15652H10.5737V5.91304H21.3563V2.15652Z" fill="#E74040"/>
<path d="M15.165 16.834V19.6862H16.8346V16.834C16.8346 16.5267 17.0838 16.2775 17.3911 16.2775H20.2433V14.6079H17.3911C17.0838 14.6079 16.8346 14.3587 16.8346 14.0514V11.1992H15.165V14.0514C15.165 14.3587 14.9159 14.6079 14.6085 14.6079H11.7563V16.2775H14.6085C14.9159 16.2775 15.165 16.5267 15.165 16.834Z" fill="#E74040"/>
</g>
<defs>
<clipPath id="clip0_2_150">
<rect width="32" height="32" fill="white"/>
</clipPath>
</defs>
</svg>
