<svg width="23" height="23" viewBox="0 0 23 23" fill="none" xmlns="http://www.w3.org/2000/svg">
<path d="M21.0964 8.41866C21.0387 8.24885 20.9326 8.09964 20.7911 7.98945C20.6496 7.87926 20.479 7.81292 20.3002 7.79861L15.0711 7.3831L12.8083 2.37409C12.7362 2.21276 12.619 2.07573 12.4708 1.97955C12.3225 1.88336 12.1496 1.83213 11.973 1.83203C11.7963 1.83193 11.6233 1.88298 11.475 1.979C11.3267 2.07502 11.2093 2.21192 11.1371 2.37317L8.87424 7.3831L3.64509 7.79861C3.4694 7.81253 3.30144 7.87677 3.1613 7.98364C3.02116 8.09052 2.91478 8.23551 2.85489 8.40126C2.79499 8.56701 2.78412 8.74651 2.82356 8.91828C2.86301 9.09005 2.95111 9.24682 3.07732 9.36983L6.94163 13.1369L5.57495 19.0549C5.53345 19.234 5.54675 19.4215 5.61313 19.593C5.6795 19.7645 5.79588 19.9121 5.94717 20.0166C6.09845 20.1211 6.27766 20.1777 6.46153 20.1791C6.64541 20.1805 6.82546 20.1266 6.97832 20.0244L11.9727 16.6949L16.967 20.0244C17.1232 20.1282 17.3075 20.1816 17.495 20.1774C17.6825 20.1733 17.8642 20.1119 18.0158 20.0014C18.1673 19.8909 18.2814 19.7367 18.3426 19.5595C18.4039 19.3822 18.4094 19.1904 18.3584 19.01L16.6808 13.1397L20.8414 9.39551C21.1138 9.1497 21.2138 8.76629 21.0964 8.41866Z" fill="#F3CD03"/>
</svg>
